<?xml version="1.0" standalone="no"?>
<!DOCTYPE svg PUBLIC "-//W3C//DTD SVG 20010904//EN"
 "http://www.w3.org/TR/2001/REC-SVG-20010904/DTD/svg10.dtd">
<svg version="1.0" xmlns="http://www.w3.org/2000/svg"
 width="1024.000000pt" height="1024.000000pt" viewBox="0 0 1024.000000 1024.000000"
 preserveAspectRatio="xMidYMid meet">

<g transform="translate(0.000000,1024.000000) scale(0.100000,-0.100000)"
fill="#000000" stroke="none">
<path d="M7805 9445 c41 -170 59 -328 59 -535 0 -206 -14 -302 -66 -449 -38
-109 -116 -258 -176 -334 -26 -33 -54 -71 -62 -85 -17 -28 -40 -41 -40 -22 0
7 13 55 30 108 51 166 64 265 64 487 1 181 -2 212 -27 333 -15 73 -42 178 -58
235 -32 106 -89 261 -94 255 -2 -2 3 -59 12 -128 37 -312 -16 -601 -153 -832
-58 -98 -211 -256 -296 -306 -174 -103 -333 -145 -551 -146 -104 -1 -143 -4
-132 -11 108 -66 206 -137 269 -196 l77 -72 167 6 c141 4 182 9 262 32 109 31
232 86 310 138 41 28 57 34 67 25 7 -6 11 -13 8 -17 -3 -3 -10 1 -14 8 -7 11
-9 11 -13 0 -5 -14 7 -41 31 -71 10 -13 11 -18 2 -18 -7 0 -10 -4 -7 -8 2 -4
-4 -9 -15 -9 -10 -1 -19 3 -19 8 0 6 5 7 10 4 6 -3 10 -1 10 4 0 6 -7 11 -15
11 -17 0 -21 -55 -5 -65 12 -7 4 -25 -12 -25 -5 0 -8 7 -4 15 3 8 1 15 -4 15
-6 0 -10 -6 -10 -14 0 -7 -7 -19 -16 -27 -13 -10 -17 -10 -24 2 -7 11 -11 11
-20 1 -5 -6 -7 -10 -4 -7 4 3 13 0 21 -6 10 -9 17 -8 28 1 9 7 18 10 21 7 3
-3 -8 -13 -25 -22 -17 -8 -31 -20 -31 -26 0 -8 5 -7 15 1 12 10 15 10 15 -4 0
-9 4 -16 8 -16 19 0 101 68 182 149 47 47 76 72 66 56 -128 -199 -344 -377
-578 -474 -330 -137 -691 -136 -1121 3 -119 39 -370 137 -364 142 2 2 35 -5
73 -17 149 -43 474 -121 574 -136 71 -12 169 -17 300 -17 262 -1 356 16 555
102 39 16 69 35 67 42 -1 6 2 9 8 5 15 -9 71 27 66 42 -3 7 -1 13 3 13 5 0 11
-5 13 -10 3 -10 86 38 116 67 7 7 18 13 24 13 5 0 8 6 5 13 -2 6 -14 11 -27 9
-16 -3 -20 0 -15 10 3 7 -1 4 -10 -7 -11 -14 -18 -17 -23 -8 -5 8 -12 2 -21
-18 -7 -17 -19 -28 -26 -26 -6 3 -18 1 -26 -4 -12 -7 6 -7 54 0 4 0 6 6 5 12
-2 6 2 13 9 16 7 3 9 -3 6 -16 -3 -12 -12 -21 -19 -21 -8 0 -14 -4 -14 -9 0
-12 -48 -5 -67 11 -14 11 -16 11 -8 -2 12 -19 14 -50 4 -50 -4 0 -13 8 -19 18
-9 14 -10 13 -4 -6 l6 -24 -21 21 c-23 23 -41 27 -41 10 0 -8 -6 -7 -17 2 -10
7 -15 9 -11 5 4 -5 0 -15 -10 -22 -14 -10 -18 -8 -28 14 l-11 27 0 -28 c0 -16
6 -31 13 -34 8 -3 11 -9 8 -15 -3 -5 -13 0 -21 11 -8 12 -20 19 -26 15 -7 -3
-5 0 3 8 9 7 14 20 13 28 -3 14 -13 14 -91 -3 -244 -51 -560 -25 -996 84 -263
66 -512 106 -686 111 -102 3 -105 4 -105 26 0 14 5 20 13 17 6 -2 12 0 12 5 0
6 -4 10 -10 10 -5 0 -10 5 -10 11 0 5 5 7 12 3 7 -4 8 -3 4 5 -4 6 -12 9 -17
6 -12 -8 -11 2 1 25 8 16 8 18 -5 14 -8 -3 -13 -10 -10 -14 3 -4 -3 -10 -13
-12 -12 -4 -18 1 -18 13 0 14 13 21 51 29 72 16 208 30 297 30 52 0 78 4 81
13 4 9 6 9 6 0 1 -9 8 -8 29 3 15 7 43 14 62 15 32 0 33 1 11 10 -104 42 -451
70 -605 50 -90 -12 -107 -8 -105 24 0 6 3 4 6 -2 2 -7 14 -13 26 -13 17 0 19
2 8 9 -12 8 -12 12 -2 24 26 32 -31 31 -119 -2 -30 -11 -55 -19 -57 -17 -7 6
49 42 102 67 28 13 56 29 63 36 7 7 19 14 25 14 14 2 30 5 37 8 3 2 14 4 25 6
11 2 21 8 23 14 2 5 9 8 17 5 7 -3 19 4 25 17 12 22 12 22 -46 16 -129 -13
-316 -68 -439 -129 -211 -103 -369 -242 -500 -438 -161 -240 -230 -469 -229
-760 1 -177 19 -286 80 -472 62 -189 74 -253 74 -397 0 -148 -30 -311 -90
-492 -78 -231 -162 -395 -343 -669 -49 -74 -90 -141 -90 -147 0 -7 -4 -13 -8
-13 -13 0 -71 -89 -64 -99 3 -5 -1 -12 -7 -14 -10 -4 -10 -6 0 -6 6 -1 12 -6
12 -11 0 -6 -3 -9 -8 -9 -20 3 -24 -2 -8 -14 16 -12 16 -14 2 -26 -14 -12 -16
-12 -13 0 2 8 2 10 -1 6 -2 -4 -10 -3 -18 4 -23 19 -16 -1 9 -23 12 -11 16
-17 10 -13 -7 3 -13 1 -13 -5 0 -7 -6 -8 -19 0 -15 7 -22 7 -27 -2 -4 -7 -4
-10 1 -6 4 4 14 3 21 -2 6 -6 16 -10 20 -9 5 1 19 1 31 0 19 -1 20 -4 10 -25
-11 -22 -13 -23 -22 -8 -11 19 -35 27 -35 12 0 -5 7 -10 17 -10 15 0 15 -2 0
-18 -11 -12 -13 -22 -6 -35 6 -9 7 -22 3 -29 -4 -7 -3 -8 5 -4 6 4 18 21 27
38 8 16 18 28 20 25 7 -7 -139 -248 -154 -254 -24 -10 -36 13 -19 37 9 12 13
28 11 35 -3 7 5 20 18 29 12 9 18 16 13 16 -5 0 -4 5 3 12 7 7 12 16 12 22 0
5 -7 1 -15 -10 -13 -17 -14 -17 -15 -1 0 16 -2 15 -19 -2 -12 -12 -28 -18 -43
-15 -18 3 -19 3 -5 -4 10 -4 19 -12 19 -17 0 -6 4 -9 9 -7 5 1 9 -5 9 -13 0
-8 -4 -15 -9 -15 -12 0 -41 29 -41 40 0 5 -8 7 -17 3 -15 -5 -14 -3 2 10 11 9
26 17 33 17 17 0 15 37 -3 44 -12 4 -13 10 -6 25 6 10 7 22 3 26 -4 4 2 3 14
-3 22 -11 55 0 35 12 -6 4 -11 2 -11 -4 0 -6 -4 -8 -10 -5 -5 3 -10 22 -10 40
0 25 4 33 14 29 8 -3 17 -1 21 5 3 6 1 11 -6 11 -7 0 -5 6 6 13 10 8 15 19 11
26 -9 13 18 43 30 33 5 -4 2 1 -5 11 -16 21 -7 35 12 19 10 -9 14 -8 14 3 0 8
-4 12 -9 9 -4 -3 -8 0 -8 5 0 6 6 11 13 11 7 0 8 3 2 8 -13 9 -18 32 -7 32 4
0 12 -4 17 -9 7 -7 10 -2 10 13 l0 23 -43 -24 c-49 -27 -147 -101 -236 -178
-140 -121 -288 -317 -385 -511 -87 -175 -175 -465 -213 -704 -17 -113 -18
-545 0 -660 32 -209 106 -479 181 -663 22 -53 34 -94 28 -90 -56 33 -233 180
-340 283 -218 210 -381 429 -513 691 -101 201 -183 465 -220 711 -24 156 -24
463 0 613 81 501 246 807 777 1434 76 90 229 296 270 364 19 31 36 57 39 57
14 0 79 -261 80 -320 1 -59 16 -15 44 130 36 184 46 288 46 470 0 259 -39 527
-115 790 -50 171 -50 171 -51 47 -3 -229 -53 -445 -160 -688 -70 -161 -212
-389 -323 -519 -62 -73 -70 -87 -35 -63 16 11 67 45 114 75 98 63 179 135 262
231 32 37 58 66 58 63 0 -16 -51 -117 -103 -204 -82 -138 -175 -260 -332 -439
-321 -365 -449 -541 -579 -802 -216 -430 -282 -903 -196 -1408 75 -436 299
-893 609 -1242 307 -346 664 -598 1153 -814 444 -197 854 -307 1398 -374 206
-25 752 -25 965 0 496 59 921 162 1312 318 940 374 1591 1052 1753 1824 27
131 37 360 21 490 -20 157 -30 155 -30 -4 -3 -623 -302 -1171 -881 -1615 -266
-204 -654 -394 -1035 -506 -71 -21 -132 -36 -134 -34 -2 2 13 54 32 116 44
137 89 325 113 473 25 150 25 479 0 615 -26 145 -100 354 -164 470 -66 118
-161 250 -180 250 -7 0 -11 4 -8 9 3 5 -9 20 -28 34 -33 26 -33 26 -31 4 0
-12 -3 -31 -8 -41 -7 -15 -6 -18 6 -13 10 4 15 -1 15 -19 0 -13 -4 -21 -9 -18
-5 3 -9 0 -9 -5 0 -6 5 -11 11 -11 5 0 7 -6 3 -12 -6 -10 -5 -10 7 -1 14 11
16 9 14 -17 -2 -29 8 -40 18 -20 3 6 4 5 3 -2 -2 -7 -12 -12 -24 -11 -17 2
-19 -1 -12 -25 4 -16 13 -26 21 -24 11 3 11 1 2 -9 -8 -8 -9 -18 -2 -31 23
-42 -1 -13 -51 64 -61 92 -188 230 -270 293 -54 42 -183 120 -268 163 -24 13
-95 40 -158 62 -309 107 -729 139 -1022 78 -80 -17 -111 -20 -108 -12 3 7 0
15 -7 17 -8 3 -6 10 6 25 13 14 15 22 7 27 -8 5 -7 11 2 23 12 15 11 16 -5 3
-14 -11 -15 -16 -5 -29 11 -13 10 -14 -7 -9 -11 4 -27 2 -35 -4 -12 -8 -10 -9
8 -4 13 4 22 2 22 -5 0 -6 -4 -8 -10 -5 -5 3 -10 1 -10 -4 0 -7 -7 -7 -20 1
-19 12 -19 13 7 27 26 13 27 14 7 22 -12 4 -24 19 -26 33 -7 33 -2 33 16 -1 9
-17 15 -22 16 -12 0 8 -9 25 -20 37 -21 22 -27 37 -10 27 6 -3 10 -2 10 4 0
17 -22 24 -31 10 -7 -11 -9 -11 -9 -1 0 7 7 20 15 28 9 9 15 11 15 4 0 -6 4
-8 10 -5 19 12 10 24 -16 19 -16 -3 -23 -1 -19 6 3 5 2 10 -4 10 -5 0 -12 -6
-15 -12 -3 -7 -3 0 -1 16 5 34 11 41 20 27 3 -6 0 -11 -7 -11 -8 0 -5 -5 5
-11 14 -8 22 -8 30 1 9 10 9 11 0 6 -11 -6 -15 -1 -12 20 0 3 -9 14 -21 24
-22 19 -17 29 11 25 9 -2 16 3 16 10 0 13 -27 13 -49 -1 -7 -4 -8 -3 -4 4 4 7
2 12 -3 12 -6 0 -11 8 -11 18 0 14 2 15 10 2 11 -18 17 -13 23 20 2 14 2 19 0
13 -8 -24 -25 -13 -19 12 4 15 2 25 -4 25 -6 0 -1 18 10 40 14 27 16 39 8 38
-9 -2 -12 8 -11 30 1 18 -2 30 -8 27 -5 -4 -9 1 -9 10 0 9 4 13 10 10 13 -8
13 8 0 21 -12 12 9 64 25 64 6 0 3 4 -5 10 -9 5 -19 5 -27 -2 -7 -6 -13 -7
-13 -2 0 19 16 31 39 29 19 -1 21 0 10 9 -15 11 -21 79 -7 70 5 -3 6 -10 3
-15 -4 -5 -1 -9 5 -9 6 0 8 -4 5 -10 -3 -5 1 -10 9 -10 9 0 16 -7 16 -15 0
-17 25 -20 35 -5 3 6 -1 7 -10 4 -11 -5 -14 -2 -9 10 4 9 1 16 -6 16 -7 0 -3
8 8 19 23 19 30 37 10 25 -7 -4 -8 -3 -4 4 4 6 13 9 21 6 8 -4 13 -9 10 -13
-2 -4 2 -8 10 -8 11 0 12 5 4 19 -6 11 -8 27 -5 35 4 9 1 23 -6 32 -11 14 -11
14 3 4 9 -7 18 -10 22 -7 3 3 3 -3 1 -13 -3 -12 2 -25 13 -33 15 -12 16 -12 6
0 -15 17 -17 44 -3 35 5 -3 7 0 4 9 -3 8 -13 17 -22 19 -16 4 -16 5 -1 6 9 0
20 8 23 17 9 22 -3 32 -14 14 -6 -8 -10 -10 -10 -4 0 6 8 18 18 27 18 16 19
15 18 -22 -1 -27 3 -37 11 -34 7 3 11 9 8 13 -3 5 -7 27 -9 49 -4 40 6 62 19
41 3 -5 11 -10 16 -10 6 0 8 4 5 9 -4 5 -2 20 3 33 9 21 12 18 15 -14 1 -7 4
-17 8 -23 5 -5 39 -73 77 -150 90 -181 175 -311 264 -403 86 -88 132 -123 250
-186 73 -40 87 -44 77 -26 -56 104 -92 437 -55 513 12 26 196 280 225 310 4 4
34 -6 66 -24 32 -18 106 -58 164 -89 148 -81 450 -233 454 -229 1 2 29 54 61
116 l58 112 -16 51 c-36 111 -16 175 66 209 27 12 56 21 63 21 18 0 18 5 -6
73 -11 31 -20 60 -20 65 0 5 26 12 58 15 31 4 73 11 93 17 l36 10 -1 77 -1 77
44 34 c47 36 52 36 139 11 37 -10 52 -9 101 6 l58 17 -18 62 c-11 33 -43 176
-73 316 -30 140 -57 266 -61 280 -6 24 0 29 74 68 96 51 94 43 56 224 -30 145
-31 183 -5 268 11 36 25 99 31 140 l11 76 81 18 c174 39 347 120 499 233 314
236 529 628 578 1055 16 135 8 480 -14 596 -24 132 -83 345 -128 465 -39 105
-104 244 -93 202z m-2815 -1329 c0 -3 -4 -8 -10 -11 -5 -3 -10 -1 -10 4 0 6 5
11 10 11 6 0 10 -2 10 -4z m-40 -66 c0 -5 -5 -10 -11 -10 -5 0 -7 5 -4 10 3 6
8 10 11 10 2 0 4 -4 4 -10z m2545 -178 c-3 -3 -11 0 -18 7 -9 10 -8 11 6 5 10
-3 15 -9 12 -12z m-2351 -42 c-6 -6 -10 -3 -10 10 0 13 4 16 10 10 7 -7 7 -13
0 -20z m2199 -170 c-9 -11 -19 -17 -21 -15 -6 6 18 35 29 35 5 0 1 -9 -8 -20z
m-353 -63 c0 -2 -11 -14 -24 -26 -18 -17 -26 -19 -31 -10 -6 8 -4 10 5 4 10
-6 12 -4 7 8 -4 11 -2 14 9 10 7 -3 14 0 14 6 0 6 5 11 10 11 6 0 10 -1 10 -3z
m24 -12 c-4 -8 -10 -15 -15 -15 -4 0 -6 7 -3 15 4 8 10 15 15 15 4 0 6 -7 3
-15z m133 1 c0 -7 -8 -18 -17 -23 -13 -9 -16 -6 -18 11 -1 14 1 17 7 8 7 -11
9 -10 14 2 8 20 14 21 14 2z m-2606 -436 c72 -87 153 -154 293 -243 148 -94
217 -156 249 -224 19 -42 22 -64 20 -163 0 -63 -6 -126 -11 -140 l-11 -25 0
27 c-2 51 -51 183 -89 238 -37 53 -66 79 -252 228 -104 83 -167 160 -219 266
-41 85 -63 149 -39 112 7 -10 34 -44 59 -76z m69 -480 c5 0 7 -6 4 -13 -2 -7
8 -22 24 -34 21 -16 33 -38 46 -87 10 -37 16 -69 13 -73 -4 -3 0 -18 8 -34 17
-32 20 -54 4 -26 -5 9 -15 17 -22 17 -9 0 -8 -3 1 -8 9 -6 10 -15 3 -33 -9
-23 -10 -23 -26 16 -22 50 -75 260 -74 289 1 16 2 17 6 4 2 -10 8 -18 13 -18z
m2125 -240 c18 -52 35 -108 39 -124 l7 -28 -78 42 c-71 38 -163 104 -251 178
l-34 28 45 -1 c25 -1 52 -7 60 -13 11 -9 14 -9 14 3 0 8 -5 11 -10 8 -6 -4 -7
-1 -2 7 6 10 10 10 19 -2 6 -8 21 -14 34 -13 12 1 22 -1 22 -4 0 -6 39 -7 78
-2 6 0 12 11 13 24 1 26 0 27 44 -103z m-64 87 c-10 -9 -11 -8 -5 6 3 10 9 15
12 12 3 -3 0 -11 -7 -18z m-985 -184 c115 -43 202 -94 272 -159 42 -40 53 -56
48 -72 -4 -11 -3 -23 2 -26 5 -3 7 -19 4 -37 -3 -22 -7 -27 -13 -18 -7 11 -9
11 -9 1 0 -7 -4 -11 -9 -8 -4 3 -6 -6 -3 -19 2 -14 9 -22 15 -18 6 4 7 1 2 -7
-4 -7 -2 -16 6 -21 11 -7 11 -9 1 -9 -10 0 -10 -5 -1 -22 11 -23 11 -23 -7 -3
-11 11 -42 46 -69 79 -50 59 -160 161 -313 290 -45 38 -88 79 -97 92 l-15 23
48 -16 c26 -9 88 -32 138 -50z m892 -657 c31 -35 92 -121 92 -129 0 -3 -19 2
-42 10 -23 8 -69 17 -104 20 -80 7 -90 13 -74 44 17 33 71 89 86 89 7 0 25
-15 42 -34z m-2213 -1118 c2 -20 1 -20 -11 -3 -7 10 -11 22 -8 27 8 13 17 2
19 -24z m-888 -20 c-3 -8 -6 -5 -6 6 -1 11 2 17 5 13 3 -3 4 -12 1 -19z m-197
-58 c0 -5 -5 -10 -11 -10 -5 0 -7 5 -4 10 3 6 8 10 11 10 2 0 4 -4 4 -10z
m1080 0 c0 -5 -5 -10 -11 -10 -5 0 -7 5 -4 10 3 6 8 10 11 10 2 0 4 -4 4 -10z
m-1106 -46 c3 -8 2 -12 -4 -9 -6 3 -10 10 -10 16 0 14 7 11 14 -7z m10 -59
c11 -9 14 -15 7 -15 -7 0 -19 7 -27 15 -20 19 -5 19 20 0z m70 -50 c-6 -16
-24 -21 -24 -7 0 11 11 22 21 22 5 0 6 -7 3 -15z m1028 -4 c8 11 9 11 6 1 -4
-16 -22 -18 -24 -2 -2 7 -1 6 3 -1 4 -8 8 -7 15 2z m-1112 -35 c0 -2 -6 -9
-14 -15 -11 -9 -16 -9 -22 0 -4 8 -3 9 4 5 7 -4 12 -2 12 3 0 6 5 11 10 11 6
0 10 -2 10 -4z m47 -23 c2 -6 -1 -14 -6 -18 -7 -4 -8 1 -4 12 6 16 5 16 -10 4
-15 -11 -17 -11 -17 2 0 17 32 17 37 0z m651 -40 c-13 -16 -58 -64 -99 -108
-103 -107 -200 -223 -249 -296 -45 -66 -64 -80 -29 -21 64 107 147 210 261
325 119 118 171 163 116 100z m-688 13 c0 -2 -7 -7 -16 -10 -8 -3 -12 -2 -9 4
6 10 25 14 25 6z m15 -16 c-3 -5 -12 -10 -18 -10 -7 0 -6 4 3 10 19 12 23 12
15 0z m49 -23 c3 4 -1 -8 -10 -25 -18 -38 -27 -42 -14 -7 9 24 6 29 -13 26 -5
-1 -6 3 -2 9 5 8 11 8 19 1 7 -6 16 -8 20 -4z m1144 -386 c3 -8 -1 -12 -9 -9
-7 2 -15 10 -17 17 -3 8 1 12 9 9 7 -2 15 -10 17 -17z m962 -96 c146 -26 254
-61 375 -119 302 -145 523 -409 631 -754 34 -107 35 -114 20 -137 -20 -30 -26
-32 -19 -5 3 11 10 20 16 20 6 0 7 3 3 7 -4 4 -16 -3 -27 -17 l-19 -25 10 28
c13 37 13 40 -6 29 -9 -5 -26 -7 -38 -5 -19 4 -19 3 -3 -7 9 -6 22 -8 27 -5 6
3 7 -1 4 -10 -5 -11 -10 -13 -17 -6 -5 5 -16 7 -24 4 -11 -5 -11 -9 3 -24 9
-11 12 -19 6 -19 -6 0 -29 36 -50 79 -186 371 -517 660 -887 776 -145 46 -266
64 -462 72 l-163 6 -21 36 c-13 22 -17 37 -10 39 6 2 11 10 11 18 0 8 5 14 11
14 5 0 7 -6 4 -12 -4 -7 0 -6 7 4 9 10 41 20 83 26 104 16 422 8 535 -13z
m-640 -95 c0 -5 -5 -10 -11 -10 -5 0 -7 5 -4 10 3 6 8 10 11 10 2 0 4 -4 4
-10z m393 -249 c26 -11 49 -21 52 -21 3 0 11 0 19 0 8 0 21 -7 30 -15 8 -9 18
-16 21 -15 20 1 25 -1 20 -9 -3 -5 3 -12 14 -16 10 -3 27 -15 37 -27 17 -20
18 -21 1 -15 -53 20 -236 68 -327 88 -58 12 -112 24 -120 27 -8 3 -19 4 -23 3
-5 -1 -6 3 -2 9 3 6 10 8 15 5 5 -3 12 -1 15 5 12 19 193 5 248 -19z m1177
-11 c0 -5 -5 -10 -11 -10 -5 0 -7 5 -4 10 3 6 8 10 11 10 2 0 4 -4 4 -10z m10
-130 c0 -5 -2 -10 -4 -10 -3 0 -8 5 -11 10 -3 6 -1 10 4 10 6 0 11 -4 11 -10z"/>
<path d="M4785 3670 c-3 -5 1 -13 10 -16 22 -9 29 1 11 15 -10 8 -16 9 -21 1z"/>
<path d="M6389 2781 c6 -10 7 -21 3 -25 -3 -4 2 -4 13 0 11 5 14 9 7 12 -7 2
-12 10 -12 18 0 8 -5 14 -10 14 -7 0 -7 -6 -1 -19z"/>
<path d="M5688 8123 c6 -2 18 -2 25 0 6 3 1 5 -13 5 -14 0 -19 -2 -12 -5z"/>
<path d="M5801 8095 c142 -43 313 -126 474 -230 33 -21 54 -31 46 -21 -21 26
-185 124 -286 172 -95 45 -264 104 -293 103 -9 0 17 -11 59 -24z"/>
<path d="M7430 7880 c0 -5 5 -10 10 -10 6 0 10 5 10 10 0 6 -4 10 -10 10 -5 0
-10 -4 -10 -10z"/>
<path d="M7265 7680 c-3 -5 -1 -10 4 -10 6 0 11 5 11 10 0 6 -2 10 -4 10 -3 0
-8 -4 -11 -10z"/>
<path d="M7074 7636 c-3 -8 -1 -22 4 -32 7 -13 9 -10 8 15 -1 34 -4 38 -12 17z"/>
<path d="M4550 4810 c0 -6 7 -13 15 -17 24 -9 27 1 5 15 -13 8 -20 8 -20 2z"/>
<path d="M3432 4744 c-7 -8 -8 -14 -3 -14 10 0 25 19 20 25 -2 1 -10 -3 -17
-11z"/>
<path d="M4549 4683 c-13 -16 -12 -17 4 -4 16 13 21 21 13 21 -2 0 -10 -8 -17
-17z"/>
<path d="M4445 4591 c-3 -5 0 -13 6 -17 7 -4 9 -3 5 4 -3 5 0 13 6 15 9 4 10
6 1 6 -6 1 -14 -3 -18 -8z"/>
<path d="M3367 4445 c-4 -8 -3 -16 1 -19 4 -3 9 4 9 15 2 23 -3 25 -10 4z"/>
<path d="M3385 4410 c-3 -5 -2 -18 3 -27 5 -10 7 -25 4 -33 -4 -13 -3 -13 11
-2 15 13 15 16 1 29 -8 9 -13 22 -10 29 6 16 0 19 -9 4z"/>
<path d="M3355 4301 c-3 -5 0 -13 6 -17 7 -4 9 -3 5 4 -3 5 0 13 6 15 9 4 10
6 1 6 -6 1 -14 -3 -18 -8z"/>
<path d="M3322 4245 c-15 -32 -2 -32 21 0 14 19 15 25 4 25 -8 0 -19 -11 -25
-25z"/>
<path d="M4395 4201 c-3 -5 -2 -12 3 -15 5 -3 9 1 9 9 0 17 -3 19 -12 6z"/>
<path d="M4446 4007 c3 -10 9 -15 12 -12 3 3 0 11 -7 18 -10 9 -11 8 -5 -6z"/>
<path d="M4455 3950 c4 -6 11 -8 16 -5 14 9 11 15 -7 15 -8 0 -12 -5 -9 -10z"/>
</g>
</svg>
